{"title":"Return of the Living Dead Part II 1988 720p WEB-DL x264 SSloco","uid":11984835,"size":650896013,"categoryP":"video","categoryS":"hd___movies","magnet":"?xt=urn:btih:e753320528e3ac5f8192eb9298d16ee410ac61d4&amp;dn=Return+of+the+Living+Dead+Part+II+1988+720p+WEB-DL+x264+SSloco&amp;tr=udp%3A%2F%2Ftracker.openbittorrent.com%3A80&amp;tr=udp%3A%2F%2Fopen.demonii.com%3A1337&amp;tr=udp%3A%2F%2Ftracker.coppersurfer.tk%3A6969&amp;tr=udp%3A%2F%2Fexodus.desync.com%3A6969","seeders":0,"leechers":1,"uploader":"myhoes14","files":1,"time":1433324179,"description":"Source:Return.of.the.Living.Dead.Part.II.1988.720p.WEB-DL.AAC2.0.H.264-BS\n\nMedia Info\n\n[size=200]Format : MPEG-4\nFormat profile : Base Media\nCodec ID : isom\nFile size : 621 MiB\nDuration : 1h 29mn\nOverall bit rate mode : Variable\nOverall bit rate : 971 Kbps\nEncoded date : UTC 2015-02-22 10:49:01\nTagged date : UTC 2015-02-22 10:49:01\n\nVideo\nID : 1\nFormat : AVC\nFormat/Info : Advanced Video Codec\nFormat profile : &lt;a class=&quot;__cf_email__&quot; href=&quot;/cdn-cgi/l/email-protection&quot; data-cfemail=&quot;f5bd9c929db5b9c1dbc4&quot;&gt;[email&amp;#160;protected]&lt;/a&gt;&lt;script data-cfhash='f9e31' type=&quot;text/javascript&quot;&gt;\n/* &lt;![CDATA[ */!function(){try{var t=&quot;currentScript&quot;in document?document.currentScript:function(){for(var t=document.getElementsByTagName(&quot;script&quot;),e=t.length;e--;)if(t[e].getAttribute(&quot;data-cfhash&quot;))return t[e]}();if(t&amp;&amp;t.previousSibling){var e,r,n,i,c=t.previousSibling,a=c.getAttribute(&quot;data-cfemail&quot;);if(a){for(e=&quot;&quot;,r=parseInt(a.substr(0,2),16),n=2;a.length-n;n+=2)i=parseInt(a.substr(n,2),16)^r,e+=String.fromCharCode(i);e=document.createTextNode(e),c.parentNode.replaceChild(e,c)}t.parentNode.removeChild(t);}}catch(u){}}()/* ]]&gt; */&lt;/script&gt;\nFormat settings, CABAC : Yes\nFormat settings, ReFrames : 9 frames\nCodec ID : avc1\nCodec ID/Info : Advanced Video Coding\nDuration : 1h 29mn\nBit rate : 810 Kbps\nMaximum bit rate : 4 414 Kbps\nWidth : 1 264 pixels\nHeight : 720 pixels\nDisplay aspect ratio : 16:9\nFrame rate mode : Constant\nFrame rate : 23.976 fps\nColor space : YUV\nChroma subsampling : 4:2:0\nBit depth : 8 bits\nScan type : Progressive\nBits/(Pixel*Frame) : 0.037\nStream size : 518 MiB (83%)\nWriting library : x264 core 142 r2431 ac76440\nEncoding settings : cabac=1 / ref=9 / deblock=1:-1:-1 / analyse=0x3:0x133 / me=umh / subme=11 / psy=1 / psy_rd=1.00:0.00 / mixed_ref=1 / me_range=64 / chroma_me=1 / trellis=2 / 8x8dct=1 / cqm=0 / deadzone=21,11 / fast_pskip=1 / chroma_qp_offset=-2 / threads=6 / lookahead_threads=1 / sliced_threads=0 / nr=0 / decimate=1 / interlaced=0 / bluray_compat=0 / constrained_intra=0 / bframes=8 / b_pyramid=2 / b_adapt=2 / b_bias=0 / direct=3 / weightb=1 / open_gop=0 / weightp=2 / keyint=240 / keyint_min=23 / scenecut=40 / intra_refresh=0 / rc_lookahead=60 / rc=2pass / mbtree=1 / bitrate=810 / ratetol=1.0 / qcomp=0.60 / qpmin=0 / qpmax=69 / qpstep=4 / cplxblur=20.0 / qblur=0.5 / vbv_maxrate=62500 / vbv_bufsize=78125 / nal_hrd=none / filler=0 / ip_ratio=1.40 / aq=1:1.00\nEncoded date : UTC 2015-02-22 10:49:01\nTagged date : UTC 2015-02-22 10:50:35\nColor primaries : BT.709\nMatrix coefficients : BT.709\nColor range : Limited\n\nAudio\nID : 2\nFormat : AAC\nFormat/Info : Advanced Audio Codec\nFormat profile : LC\nCodec ID : 40\nDuration : 1h 29mn\nBit rate mode : Variable\nBit rate : 157 Kbps\nMaximum bit rate : 250 Kbps\nChannel(s) : 2 channels\nChannel positions : Front: L R\nSampling rate : 48.0 KHz\nCompression mode : Lossy\nStream size : 101 MiB (16%)\nLanguage : English\nEncoded date : UTC 2015-02-22 10:50:20\nTagged date : UTC 2015-02-22 10:50:35\n\nMenu\n00:00:00.000 : Credits.\n00:03:16.000 : Finders keepers.\n00:08:04.000 : No respect for the dead.\n00:11:48.000 : Unholy smoke.\n00:18:37.000 : Slime time.\n00:23:31.000 : Out and about.\n00:29:57.000 : Calling for help.\n00:34:16.000 : Head trauma.\n00:37:29.000 : House party.\n00:41:49.000 : Family meal.\n00:43:10.000 : Hands off.\n00:47:17.000 : Where is everybody.\n00:52:05.000 : Armed and dead serious.\n00:55:08.000 : Not all together.\n00:59:12.000 : Ed, quit it.\n01:02:44.000 : Not into dead guys.\n01:06:30.000 : We'll give'em brains.\n01:10:52.000 : Chow time.\n01:12:53.000 : Gate crashers.\n01:17:15.000 : Jesse at the wheel.\n01:20:24.000 : Fried zombies.\n01:24:12.000 : You win.\n01:25:32.000 : End Credits","torrent":{"xt":"urn:btih:e753320528e3ac5f8192eb9298d16ee410ac61d4","amp;dn":"Return+of+the+Living+Dead+Part+II+1988+720p+WEB-DL+x264+SSloco","amp;tr":["udp%3A%2F%2Ftracker.openbittorrent.com%3A80","udp%3A%2F%2Fopen.demonii.com%3A1337","udp%3A%2F%2Ftracker.coppersurfer.tk%3A6969","udp%3A%2F%2Fexodus.desync.com%3A6969"],"infoHash":"e753320528e3ac5f8192eb9298d16ee410ac61d4","infoHashBuffer":{"type":"Buffer","data":[231,83,50,5,40,227,172,95,129,146,235,146,152,209,110,228,16,172,97,212]},"announce":[],"urlList":[]}}